HIERARCHY
ROOT Hips
{
	OFFSET -3.958830 18.904000 13.208200
	CHANNELS 6 Xposition Yposition Zposition Zrotation Yrotation Xrotation 
	JOINT LHipJoint
	{
		OFFSET 0.000000 0.000000 0.000000
		CHANNELS 3 Zrotation Yrotation Xrotation
		JOINT LeftUpLeg
		{
			OFFSET 1.800000 -1.400000 0.085000
			CHANNELS 3 Zrotation Yrotation Xrotation
			JOINT LeftLeg
			{
				OFFSET 2.215000 -6.000000 0.000000
				CHANNELS 3 Zrotation Yrotation Xrotation
				JOINT LeftFoot
				{
					OFFSET 2.500000 -6.900000 0.000000
					CHANNELS 3 Zrotation Yrotation Xrotation
					JOINT LeftToeBase
					{
						OFFSET 0.200000 -0.500000 1.950000
						CHANNELS 3 Zrotation Yrotation Xrotation
						End Site
						{
							OFFSET 0.000000 0.000000 0.000000
						}
					}
				}
			}
		}
	}
	JOINT RHipJoint
	{
		OFFSET 0.000000 0.000000 0.000000
		CHANNELS 3 Zrotation Yrotation Xrotation
		JOINT RightUpLeg
		{
			OFFSET -1.800000 -1.400000 0.085000
			CHANNELS 3 Zrotation Yrotation Xrotation
			JOINT RightLeg
			{
				OFFSET -2.215000 -6.000000 0.000000
				CHANNELS 3 Zrotation Yrotation Xrotation
				JOINT RightFoot
				{
					OFFSET -2.500000 -6.900000 0.000000
					CHANNELS 3 Zrotation Yrotation Xrotation
					JOINT RightToeBase
					{
						OFFSET -0.200000 -0.500000 1.950000
						CHANNELS 3 Zrotation Yrotation Xrotation
						End Site
						{
							OFFSET 0.000000 0.000000 0.000000
						}
					}
				}
			}
		}
	}
	JOINT LowerBack
	{
		OFFSET 0.000000 0.000000 0.000000
		CHANNELS 3 Zrotation Yrotation Xrotation
		JOINT Spine
		{
			OFFSET -0.087000 1.940000 -0.288900
			CHANNELS 3 Zrotation Yrotation Xrotation
			JOINT Spine1
			{
				OFFSET 0.000000 1.950000 0.060000
				CHANNELS 3 Zrotation Yrotation Xrotation
				JOINT Neck
				{
					OFFSET 0.000000 0.000000 0.000000
					CHANNELS 3 Zrotation Yrotation Xrotation
					JOINT Neck1
					{
						OFFSET 0.000000 1.600000 0.340000
						CHANNELS 3 Zrotation Yrotation Xrotation
						JOINT Head
						{
							OFFSET 0.000000 1.667000 -0.240000
							CHANNELS 3 Zrotation Yrotation Xrotation
							End Site
							{
								OFFSET 0.000000 0.000000 0.000000
							}
						}
					}
				}
				JOINT LeftShoulder
				{
					OFFSET 0.000000 0.000000 0.000000
					CHANNELS 3 Zrotation Yrotation Xrotation
					JOINT LeftArm
					{
						OFFSET 2.700000 1.550000 -0.730000
						CHANNELS 3 Zrotation Yrotation Xrotation
						JOINT LeftForeArm
						{
							OFFSET 5.450000 0.000000 0.000000
							CHANNELS 3 Zrotation Yrotation Xrotation
							JOINT LeftHand
							{
								OFFSET 3.450000 0.000000 0.000000
								CHANNELS 3 Zrotation Yrotation Xrotation
								JOINT LeftHandIndex1
								{
									OFFSET 0.750000 0.000000 0.000000
									CHANNELS 3 Zrotation Yrotation Xrotation
									End Site
									{
										OFFSET 0.000000 0.000000 0.000000
									}
								}
							}
						}
					}
				}
				JOINT RightShoulder
				{
					OFFSET 0.000000 0.000000 0.000000
					CHANNELS 3 Zrotation Yrotation Xrotation
					JOINT RightArm
					{
						OFFSET -2.700000 1.550000 -0.730000
						CHANNELS 3 Zrotation Yrotation Xrotation
						JOINT RightForeArm
						{
							OFFSET -5.450000 0.000000 0.000000
							CHANNELS 3 Zrotation Yrotation Xrotation
							JOINT RightHand
							{
								OFFSET -3.450000 0.000000 0.000000
								CHANNELS 3 Zrotation Yrotation Xrotation
								JOINT RightHandIndex1
								{
									OFFSET -0.750000 0.000000 0.000000
									CHANNELS 3 Zrotation Yrotation Xrotation
									End Site
									{
										OFFSET 0.000000 0.000000 0.000000
									}
								}
							}
						}
					}
				}
			}
		}
	}
}
MOTION
Frames: 6
Frame Time: 0.016667
0.390750 17.312200 -4.118680 3.328809 28.568323 -13.624403 -15.613438 14.030546 3.435442 -1.888034 -0.213739 12.127679 -1.371212 8.985490 36.907708 0.099088 8.007925 1.799395 1.143130 0.638480 1.067900 17.771213 -10.450809 2.928222 0.272261 3.806433 -16.743681 7.481300 -9.972526 39.580489 -1.176468 -5.830320 2.385370 0.388690 -0.401540 0.182500 -2.865192 -3.169661 -8.078006 6.675627 -2.877444 28.059319 -0.549691 -1.442037 5.714969 4.821687 6.441856 -7.392305 8.907549 -10.935275 56.308336 2.034730 -4.657120 -27.472050 -30.258073 -5.266400 1.451781 -25.365835 12.636851 -10.737159 -56.883230 -39.658509 14.450967 -3.018076 3.197072 1.234140 -0.354940 0.430100 0.160270 22.758911 1.624489 3.481042 34.584709 -9.538514 -12.034427 41.132296 22.264747 2.950072 1.799073 -1.402090 -0.163030 0.252370 -0.352980 -0.584520 
0.371300 17.279470 -4.193900 2.405500 29.667929 -14.941886 -15.598093 13.986072 3.427133 -2.332202 0.165387 12.901070 -0.895720 8.647331 35.774546 0.089909 7.834682 1.850965 1.152840 0.664330 1.066970 17.803783 -10.231186 3.110008 -0.904738 4.897064 -19.637439 9.736384 -11.852512 43.612513 -1.363423 -6.664826 2.102036 0.392090 -0.416800 0.184080 -2.943033 -3.340682 -8.200920 8.280401 -3.793973 30.776917 -0.927246 -2.137326 5.223106 4.868360 6.129411 -7.407157 8.374464 -10.800159 56.612389 2.239490 -4.638540 -28.428700 -30.330424 -5.263375 1.635979 -24.845487 14.299459 -11.223094 -59.002162 -40.012065 15.066081 -2.994407 3.211210 1.237740 -0.368390 0.449370 0.158240 22.700828 1.779082 3.274087 34.153282 -8.981004 -12.219976 40.306756 23.381898 3.248642 1.798746 -1.389745 -0.145560 0.251840 -0.356830 -0.576980 
0.345900 17.251270 -4.276310 1.707505 30.669525 -16.065912 -15.606654 13.978043 3.398668 -2.594427 0.528001 13.693836 0.051342 8.163023 34.853569 0.069651 7.685267 1.901936 1.158320 0.665730 1.079430 17.815299 -9.960061 3.326195 -2.424911 5.958090 -22.580313 11.972962 -13.755872 47.079081 -1.554965 -7.473028 1.828443 0.386340 -0.429520 0.184490 -2.930960 -3.646120 -8.309470 9.263548 -4.581904 33.867707 -1.022381 -2.731623 4.692370 4.845840 5.803638 -7.486215 7.669061 -10.490480 56.578477 2.868070 -4.554710 -29.848500 -30.326941 -5.488777 1.878721 -24.417005 15.672820 -11.623936 -61.159441 -39.820399 15.381353 -2.969549 3.208557 1.264450 -0.391150 0.468300 0.151900 22.685192 2.218319 3.257396 33.463656 -8.851024 -12.694816 40.177040 25.755528 3.979477 1.789888 -1.385530 -0.145180 0.257660 -0.357740 -0.581180 
0.304770 17.211310 -4.340390 1.422128 31.404217 -16.420185 -15.649697 13.992994 3.322991 -2.295694 0.970618 14.320786 0.787113 7.806843 33.568983 0.038851 7.529346 1.960517 1.139860 0.650870 1.063320 17.801426 -9.627460 3.604111 -4.008887 7.198431 -25.778385 14.160402 -15.497761 49.952920 -1.719811 -8.220790 1.595685 0.377330 -0.419150 0.180190 -2.796053 -4.046513 -8.409832 8.983430 -4.679279 36.455696 -0.379687 -2.878298 4.081761 4.694761 5.868867 -7.578860 7.699066 -10.420645 55.476482 3.443790 -4.382900 -30.713930 -30.302911 -5.758331 2.255493 -23.672452 17.426393 -11.836961 -63.748244 -39.035164 15.482702 -2.969492 3.200866 1.275810 -0.391560 0.468130 0.147890 22.924425 2.678790 3.210620 32.559120 -8.849083 -12.941544 39.769573 27.196345 4.386476 1.769679 -1.373994 -0.156510 0.270300 -0.345110 -0.581540 
0.254390 17.164510 -4.396680 1.227784 31.941618 -16.307412 -15.695270 14.018835 3.200612 -1.447428 1.240751 14.531097 1.172981 7.646639 32.585477 0.024018 7.412953 1.998337 1.141900 0.652890 1.063230 17.787946 -9.294453 3.908432 -5.423003 8.433902 -29.043060 16.077814 -16.863967 51.961696 -1.856522 -8.800412 1.407029 0.370910 -0.425730 0.198550 -2.649669 -4.432379 -8.496284 8.365166 -4.546833 38.735394 0.393226 -2.862415 3.365829 4.533424 6.177462 -7.632082 8.171329 -10.596930 53.508840 3.846330 -4.203690 -31.577140 -30.370328 -6.111030 2.678276 -22.815551 19.082493 -11.893026 -65.861287 -37.336665 14.817763 -2.961391 3.228956 1.278350 -0.394510 0.478020 0.146270 23.257328 3.084442 3.104722 31.756889 -8.794799 -13.093976 39.362673 28.220971 4.649092 1.759188 -1.390814 -0.143540 0.249670 -0.347110 -0.579230 
0.202170 17.112960 -4.433590 1.003947 32.490874 -15.548686 -15.716180 13.997846 3.032898 -0.127754 1.390293 14.257211 0.955063 7.699072 31.309926 0.009487 7.271251 2.050166 1.111090 0.624770 1.035440 17.801030 -9.024551 4.225644 -6.494131 9.642058 -32.477111 17.455326 -17.699025 53.232230 -1.919213 -9.180354 1.290856 0.348670 -0.413970 0.204330 -2.605171 -4.603680 -8.576868 7.998937 -4.443685 40.132251 0.883010 -2.783387 2.441949 4.236294 6.607054 -7.735798 8.926108 -10.741255 50.876793 4.401690 -4.092390 -31.293020 -30.205771 -6.393836 3.173392 -21.473270 20.887436 -11.623272 -67.876716 -34.331725 13.258062 -2.969672 3.259212 1.251520 -0.379840 0.458690 0.137780 23.546300 3.207122 2.994233 31.460026 -9.231815 -13.309735 39.285195 28.909865 4.807315 1.759738 -1.412435 -0.136300 0.223060 -0.336430 -0.570510 
